<mxfile host="app.diagrams.net" modified="2020-11-18T08:30:53.843Z" agent="5.0 (Windows NT 10.0; Win64; x64) AppleWebKit/537.36 (KHTML, like Gecko) Chrome/83.0.4103.116 Safari/537.36" etag="lJgmm88fck98hJhkRUFV" version="13.6.8" type="github">
  <diagram id="yktOnPcCOyiWjtENN7tZ" name="Page-1">
    <mxGraphModel dx="921" dy="543" grid="1" gridSize="10" guides="1" tooltips="1" connect="1" arrows="1" fold="1" page="1" pageScale="1" pageWidth="827" pageHeight="1169" math="0" shadow="0">
      <root>
        <mxCell id="0" />
        <mxCell id="1" parent="0" />
      </root>
    </mxGraphModel>
  </diagram>
</mxfile>
